# xmcd
#
# Track frame offsets:
#	150
#	16241
#	29495
#	46286
#	57930
#	72335
#	84888
#	98668
#	114942
#	127685
#
# Disc length: 1965 seconds
#
# Revision: 1
# Processed by: cddbd v1.5.2PL0 Copyright (c) Steve Scherf et al.
# Submitted via: audiograbber 1.83.01
#
DISCID=7007ab0a
DTITLE=Amanda Shires - To The Sunset
DYEAR=2018
DGENRE=Country
TTITLE0=Parking Lot Pirouette
TTITLE1=Swimmer
TTITLE2=Leave It Alone
TTITLE3=Charms
TTITLE4=Eve's Daughter
TTITLE5=Break Out The Champagne
TTITLE6=Take On The Dark
TTITLE7=White Feather
TTITLE8=Mirror, Mirror
TTITLE9=Wasn't I Paying Attention
EXTD=
EXTT0=
EXTT1=
EXTT2=
EXTT3=
EXTT4=
EXTT5=
EXTT6=
EXTT7=
EXTT8=
EXTT9=
PLAYORDER=
